<?xml version="1.0" standalone="no"?><!DOCTYPE svg PUBLIC "-//W3C//DTD SVG 1.1//EN" "http://www.w3.org/Graphics/SVG/1.1/DTD/svg11.dtd"><svg t="1761632199005" class="icon" viewBox="0 0 1024 1024" version="1.1" xmlns="http://www.w3.org/2000/svg" p-id="5769" xmlns:xlink="http://www.w3.org/1999/xlink" width="200" height="200"><path d="M369.9525157 428.69033376c98.24549454-98.26644207 128.43137013-239.45506401 91.6469165-366.16870939a449.83448969 449.83448969 0 0 0-269.61999207 129.52065985c-93.49032945 93.44843289-137.06189188 217.64833526-131.61544619 340.00482471 110.62568475 14.51687164 225.69231558-19.56530817 309.58852176-103.35677517z m237.46501684 252.04473257c-77.21383652 77.21383652-112.11298213 180.88482918-105.84957065 283.31989788 119.21430992 2.61848366 239.30842977-41.12066203 330.30596225-132.13914352a450.08586458 450.08586458 0 0 0 126.18994956-246.76587016c-122.64975942-30.10208398-256.33904442 1.31971561-350.64634116 95.5851158z m224.47734061-488.71372964c-91.20701231-91.16511575-211.44776638-134.8833139-330.82965957-132.05535189 36.99393196 137.81601506 2.93270118 289.77184018-103.56625351 396.22889828-90.51573172 90.53667926-214.08719759 128.91317237-333.76235927 115.7369639 12.65251118 94.97762832 55.07194126 186.98065889 128.17999524 260.08871289a449.98112542 449.98112542 0 0 0 270.56264755 129.58350394c-5.53023729-111.58928627 33.22331595-224.24691326 117.39184454-308.41544187 103.12634781-103.02160863 248.75591732-138.23497175 382.90605556-106.89696382 9.63601836-127.00691536-33.83080492-257.23980334-130.88227054-354.27032143z" fill="#f4ea2a" p-id="5770"></path></svg>